<svg width="800" height="400" viewBox="0 0 800 400" fill="none" xmlns="http://www.w3.org/2000/svg">
  <rect width="800" height="400" rx="16" fill="#0A0A0A"/>
  <rect x="0.5" y="0.5" width="799" height="399" rx="15.5" stroke="#333"/>
  <defs>
    <linearGradient id="blue_grad" x1="0" y1="0" x2="1" y2="1">
      <stop offset="0%" stop-color="#4facfe"/>
      <stop offset="100%" stop-color="#00f2fe"/>
    </linearGradient>
  </defs>
  <rect x="50" y="100" width="220" height="200" rx="12" fill="#161616" stroke="#444"/>
  <text x="160" y="80" text-anchor="middle" fill="#888" font-size="14" font-family="sans-serif">EXECUTION LAYER</text>
  <text x="160" y="140" text-anchor="middle" fill="#fff" font-size="18" font-weight="bold" font-family="sans-serif">OpenClaw Agent</text>
  <rect x="70" y="170" width="180" height="40" rx="6" fill="#222" stroke="#555"/>
  <text x="160" y="195" text-anchor="middle" fill="#ccc" font-size="12" font-family="monospace">Execution &amp; Action</text>
  <rect x="70" y="230" width="180" height="40" rx="6" fill="#222" stroke="#555"/>
  <text x="160" y="255" text-anchor="middle" fill="#4facfe" font-size="12" font-weight="bold" font-family="monospace">Agent Adapter</text>
  <path d="M 280 200 L 440 200" stroke="#444" stroke-width="2" stroke-dasharray="4 4"/>
  <text x="360" y="190" text-anchor="middle" fill="#666" font-size="11" font-family="sans-serif">Attempts / Failures</text>
  <rect x="450" y="100" width="300" height="200" rx="12" fill="#161616" stroke="url(#blue_grad)" stroke-width="2"/>
  <text x="600" y="80" text-anchor="middle" fill="#4facfe" font-size="14" font-weight="bold" font-family="sans-serif">GOAL ENGINE SERVICE</text>
  <rect x="470" y="130" width="260" height="140" rx="8" fill="#0F172A" stroke="#1E293B"/>
  <text x="600" y="155" text-anchor="middle" fill="#4facfe" font-size="12" font-weight="bold" font-family="sans-serif">Centralized SQLite Brain</text>
  <text x="490" y="185" fill="#94A3B8" font-size="11" font-family="monospace">• Persistent Goals</text>
  <text x="490" y="210" fill="#94A3B8" font-size="11" font-family="monospace">• Structured Reflections</text>
  <text x="490" y="235" fill="#94A3B8" font-size="11" font-family="monospace">• Dynamic Policies</text>
  <text x="490" y="260" fill="#94A3B8" font-size="11" font-family="monospace">• Global Skill Forge</text>
  <path d="M 600 300 C 600 360, 160 360, 160 270" stroke="url(#blue_grad)" stroke-width="2" fill="none"/>
  <text x="380" y="350" text-anchor="middle" fill="#4facfe" font-size="13" font-weight="bold" font-family="sans-serif">Continuous Evolution &amp; Behavioral Change</text>
</svg>
